<?xml version="1.0" encoding="utf-8"?>
<!-- Generator: Adobe Illustrator 23.1.0, SVG Export Plug-In . SVG Version: 6.00 Build 0)  -->
<svg version="1.1" id="Layer_1" xmlns="http://www.w3.org/2000/svg" xmlns:xlink="http://www.w3.org/1999/xlink" x="0px" y="0px"
	 viewBox="0 0 22 22" style="enable-background:new 0 0 22 22;" xml:space="preserve">
<style type="text/css">
	.st0{fill-rule:evenodd;clip-rule:evenodd;fill:#E7E7E7;}
	.st1{fill-rule:evenodd;clip-rule:evenodd;fill:#FFFFFF;filter:url(#Adobe_OpacityMaskFilter);}
	.st2{mask:url(#mask0_1_);}
</style>
<path class="st0" d="M12.5,19v-7.3H15l0.4-2.8h-2.9V7c0-0.8,0.2-1.4,1.4-1.4l1.5,0V3.1c-0.3,0-1.2-0.1-2.2-0.1C11,3,9.5,4.3,9.5,6.8
	v2.1H7v2.8h2.5V19H12.5z"/>
<defs>
	<filter id="Adobe_OpacityMaskFilter" filterUnits="userSpaceOnUse">
		<feColorMatrix  type="matrix" values="1 0 0 0 0  0 1 0 0 0  0 0 1 0 0  0 0 0 1 0"/>
	</filter>
</defs>
<mask maskUnits="userSpaceOnUse" id="mask0_1_">
	<path class="st1" d="M12.5,19v-7.3H15l0.4-2.8h-2.9V7c0-0.8,0.2-1.4,1.4-1.4l1.5,0V3.1c-0.3,0-1.2-0.1-2.2-0.1
		C11,3,9.5,4.3,9.5,6.8v2.1H7v2.8h2.5V19H12.5z"/>
</mask>
<g class="st2">
</g>
</svg>
