<?xml version="1.0" encoding="utf-8"?>
<!-- Generator: Adobe Illustrator 23.1.0, SVG Export Plug-In . SVG Version: 6.00 Build 0)  -->
<svg version="1.1" id="Layer_1" xmlns="http://www.w3.org/2000/svg" xmlns:xlink="http://www.w3.org/1999/xlink" x="0px" y="0px"
	 viewBox="0 0 22 22" style="enable-background:new 0 0 22 22;" xml:space="preserve">
<style type="text/css">
	.st0{fill-rule:evenodd;clip-rule:evenodd;fill:#E7E7E7;}
	.st1{fill-rule:evenodd;clip-rule:evenodd;fill:#FFFFFF;filter:url(#Adobe_OpacityMaskFilter);}
	.st2{mask:url(#mask0_1_);}
</style>
<path class="st0" d="M7,2H15c2.7,0,5,2.2,5,5V15c0,2.7-2.2,5-5,5H7c-2.7,0-5-2.2-5-5V7C2,4.2,4.2,2,7,2z M15,18.4
	c1.9,0,3.4-1.5,3.4-3.4h0V7c0-1.9-1.5-3.4-3.4-3.4H7C5.1,3.6,3.6,5.1,3.6,7V15c0,1.9,1.5,3.4,3.4,3.4H15z M6.3,11
	c0-2.6,2.1-4.7,4.7-4.7s4.7,2.1,4.7,4.7c0,2.6-2.1,4.7-4.7,4.7S6.3,13.6,6.3,11z M7.9,11c0,1.7,1.4,3.1,3.1,3.1
	c1.7,0,3.1-1.4,3.1-3.1c0-1.7-1.4-3.1-3.1-3.1C9.3,7.9,7.9,9.3,7.9,11z"/>
<defs>
	<filter id="Adobe_OpacityMaskFilter" filterUnits="userSpaceOnUse">
		<feColorMatrix  type="matrix" values="1 0 0 0 0  0 1 0 0 0  0 0 1 0 0  0 0 0 1 0"/>
	</filter>
</defs>
<mask maskUnits="userSpaceOnUse" id="mask0_1_">
	<path class="st1" d="M7,2H15c2.7,0,5,2.2,5,5V15c0,2.7-2.2,5-5,5H7c-2.7,0-5-2.2-5-5V7C2,4.2,4.2,2,7,2z M15,18.4
		c1.9,0,3.4-1.5,3.4-3.4h0V7c0-1.9-1.5-3.4-3.4-3.4H7C5.1,3.6,3.6,5.1,3.6,7V15c0,1.9,1.5,3.4,3.4,3.4H15z M6.3,11
		c0-2.6,2.1-4.7,4.7-4.7s4.7,2.1,4.7,4.7c0,2.6-2.1,4.7-4.7,4.7S6.3,13.6,6.3,11z M7.9,11c0,1.7,1.4,3.1,3.1,3.1
		c1.7,0,3.1-1.4,3.1-3.1c0-1.7-1.4-3.1-3.1-3.1C9.3,7.9,7.9,9.3,7.9,11z"/>
</mask>
<g class="st2">
</g>
</svg>
